<?xml version="1.0" encoding="UTF-8" standalone="no"?>
<!DOCTYPE svg PUBLIC "-//W3C//DTD SVG 1.1//EN" "http://www.w3.org/Graphics/SVG/1.1/DTD/svg11.dtd">
<svg width="100%" height="100%" viewBox="0 0 2260 981" version="1.1" xmlns="http://www.w3.org/2000/svg" xmlns:xlink="http://www.w3.org/1999/xlink" xml:space="preserve" xmlns:serif="http://www.serif.com/" style="fill-rule:evenodd;clip-rule:evenodd;stroke-linejoin:round;stroke-miterlimit:2;">
    <g transform="matrix(1,0,0,1,-170.111263,-445.191854)">
        <g>
            <g transform="matrix(2.027265,0,0,2.027265,-605.266204,-99.656565)">
                <g transform="matrix(1.135747,0,0,1.135747,-191.259482,-107.538633)">
                    <path d="M1159.167,557.181l-101.944,-66.922l-0.428,-0.456c-6.66,2.83 -13.985,4.396 -21.673,4.396c-30.641,0 -55.518,-24.877 -55.518,-55.518c0,-30.641 24.877,-55.518 55.518,-55.518c30.641,0 55.518,24.877 55.518,55.518c0,0.689 -0.013,1.376 -0.038,2.059l118.73,77.648l-50.165,38.793Zm141.878,21.187l170.222,111.324l-110.454,-0.137l-110.181,-72.33l50.413,-38.857Z" style="fill:url(#_Linear1);"/>
                    <path d="M1099.015,436.176l114.927,75.161l0.543,13.714l-54.918,42.469l-103.971,-68.253c-6.429,2.175 -13.315,3.355 -20.474,3.355c-35.291,0 -63.943,-28.652 -63.943,-63.943c0,-35.291 28.652,-63.943 63.943,-63.943c34.452,0 62.577,27.306 63.894,61.438Zm60.151,121.005l50.165,-38.793l-118.73,-77.648c0.025,-0.683 0.038,-1.37 0.038,-2.059c0,-30.641 -24.877,-55.518 -55.518,-55.518c-30.641,0 -55.518,24.877 -55.518,55.518c0,30.641 24.877,55.518 55.518,55.518c7.688,0 15.013,-1.566 21.673,-4.396l0.428,0.456l101.944,66.922Zm316.711,125.46l-4.621,15.475l-112.966,-0.14l-112.282,-73.709l-0.52,-13.715l55.155,-42.513l175.234,114.602Zm-174.833,-104.274l-50.413,38.857l110.181,72.33l110.454,0.137l-170.222,-111.324Z" style="fill:white;"/>
                </g>
                <g transform="matrix(1.135747,0,0,1.135747,-143.218415,174.009793)">
                    <path d="M1090.383,433.312c0.17,1.767 0.257,3.558 0.257,5.369c0,30.641 -24.877,55.518 -55.518,55.518c-30.641,0 -55.518,-24.877 -55.518,-55.518c0,-30.641 24.877,-55.518 55.518,-55.518c6.115,0 12,0.991 17.504,2.82l252.418,-195.199l99.992,0l-314.653,242.528Z" style="fill:url(#_Linear2);"/>
                    <path d="M1099.048,437.269c0.01,0.469 0.015,0.94 0.015,1.412c0,35.291 -28.652,63.943 -63.943,63.943c-35.291,0 -63.943,-28.652 -63.943,-63.943c0,-35.291 28.652,-63.943 63.943,-63.943c5.432,0 10.706,0.68 15.743,1.957l251.303,-194.336l102.869,0l5.143,15.097l-311.13,239.813Zm-8.666,-3.957l314.653,-242.528l-99.992,0l-252.418,195.199c-5.504,-1.83 -11.389,-2.82 -17.504,-2.82c-30.641,0 -55.518,24.877 -55.518,55.518c0,30.641 24.877,55.518 55.518,55.518c30.641,0 55.518,-24.877 55.518,-55.518c0,-1.811 -0.087,-3.602 -0.257,-5.369Z" style="fill:white;"/>
                </g>
            </g>
            <g id="bs" transform="matrix(2.413488,0,0,2.375179,-452.422836,-1726.997352)">
                <g transform="matrix(462.891707,0,0,462.891707,244.493308,1252.165866)">
                    <path d="M0.514,-0.257c0,0.046 -0.006,0.085 -0.019,0.118c-0.013,0.033 -0.031,0.061 -0.054,0.083c-0.023,0.022 -0.05,0.038 -0.081,0.049c-0.031,0.011 -0.065,0.016 -0.102,0.016c-0.036,0 -0.07,-0.003 -0.101,-0.008c-0.031,-0.005 -0.061,-0.013 -0.089,-0.022l0,-0.669l0.119,0l0,0.162l-0.005,0.098c0.018,-0.023 0.039,-0.042 0.063,-0.056c0.024,-0.014 0.053,-0.021 0.086,-0.021c0.029,0 0.055,0.006 0.078,0.018c0.023,0.012 0.042,0.028 0.057,0.05c0.015,0.022 0.027,0.048 0.035,0.079c0.008,0.031 0.012,0.065 0.012,0.104Zm-0.125,0.005c0,-0.027 -0.002,-0.051 -0.006,-0.07c-0.004,-0.019 -0.01,-0.035 -0.017,-0.047c-0.007,-0.012 -0.016,-0.021 -0.027,-0.027c-0.011,-0.006 -0.023,-0.009 -0.036,-0.009c-0.02,0 -0.039,0.008 -0.058,0.024c-0.018,0.016 -0.038,0.038 -0.058,0.066l0,0.217c0.009,0.004 0.021,0.007 0.035,0.009c0.014,0.002 0.028,0.003 0.042,0.003c0.019,0 0.036,-0.004 0.052,-0.012c0.015,-0.008 0.029,-0.019 0.04,-0.033c0.011,-0.014 0.019,-0.032 0.025,-0.052c0.006,-0.021 0.009,-0.044 0.009,-0.07Z" style="fill:rgb(63,80,104);fill-rule:nonzero;"/>
                </g>
                <g transform="matrix(462.891707,0,0,462.891707,480.47767,1252.165866)">
                    <path d="M0.477,-0.146c0,0.028 -0.006,0.052 -0.019,0.073c-0.013,0.02 -0.029,0.036 -0.05,0.049c-0.021,0.013 -0.044,0.022 -0.07,0.027c-0.026,0.006 -0.053,0.009 -0.08,0.009c-0.036,0 -0.069,-0.002 -0.099,-0.005c-0.029,-0.003 -0.057,-0.008 -0.083,-0.015l0,-0.107c0.031,0.013 0.061,0.022 0.092,0.028c0.03,0.006 0.059,0.009 0.086,0.009c0.031,0 0.055,-0.005 0.07,-0.015c0.015,-0.01 0.023,-0.023 0.023,-0.039c0,-0.007 -0.002,-0.014 -0.005,-0.021c-0.003,-0.006 -0.009,-0.012 -0.018,-0.018c-0.009,-0.006 -0.022,-0.012 -0.038,-0.018c-0.016,-0.006 -0.038,-0.013 -0.064,-0.02c-0.024,-0.007 -0.046,-0.015 -0.064,-0.023c-0.018,-0.009 -0.034,-0.019 -0.046,-0.031c-0.012,-0.012 -0.021,-0.025 -0.027,-0.041c-0.006,-0.015 -0.009,-0.034 -0.009,-0.054c0,-0.02 0.005,-0.039 0.014,-0.057c0.009,-0.018 0.023,-0.034 0.041,-0.047c0.018,-0.014 0.041,-0.024 0.068,-0.032c0.027,-0.008 0.059,-0.012 0.095,-0.012c0.031,0 0.059,0.002 0.083,0.005c0.024,0.003 0.045,0.007 0.064,0.011l0,0.097c-0.028,-0.009 -0.055,-0.016 -0.08,-0.019c-0.025,-0.004 -0.05,-0.006 -0.074,-0.006c-0.024,0 -0.044,0.004 -0.059,0.013c-0.015,0.009 -0.022,0.021 -0.022,0.037c0,0.007 0.001,0.014 0.004,0.02c0.003,0.006 0.009,0.012 0.017,0.017c0.009,0.006 0.021,0.011 0.036,0.017c0.015,0.006 0.036,0.013 0.061,0.02c0.029,0.008 0.053,0.017 0.072,0.026c0.02,0.009 0.035,0.02 0.047,0.031c0.012,0.012 0.02,0.025 0.026,0.04c0.005,0.015 0.008,0.032 0.008,0.051Z" style="fill:rgb(63,80,104);fill-rule:nonzero;"/>
                </g>
                <path d="M490.531,1133.279c0,22.253 -3.207,41.475 -9.486,57.687c-6.414,16.564 -15.381,30.303 -26.829,41.264c-11.464,10.976 -24.993,19.121 -40.604,24.406c-15.244,5.161 -31.835,7.764 -49.779,7.764c-17.209,0 -33.215,-1.287 -48.021,-3.845c-14.767,-2.551 -28.876,-5.994 -42.328,-10.324l-5.61,-1.806l-0,-323.795l71.223,-0l0,83.413l-1.178,23.564c4.971,-4.31 10.277,-8.113 15.915,-11.411c12.195,-7.135 26.813,-10.808 43.903,-10.808c14.927,0 28.183,3.046 39.793,9.017c11.686,6.01 21.503,14.555 29.432,25.657c7.688,10.763 13.597,23.772 17.644,39.066c3.934,14.869 5.926,31.583 5.926,50.15Zm-8.037,0c0,-17.78 -1.884,-33.79 -5.651,-48.03c-3.767,-14.239 -9.229,-26.369 -16.387,-36.389c-7.157,-10.02 -16.01,-17.743 -26.558,-23.167c-10.548,-5.425 -22.602,-8.137 -36.163,-8.137c-15.52,0 -28.818,3.24 -39.893,9.719c-11.075,6.479 -20.756,15.068 -29.044,25.766l2.26,-45.204l0,-75.039l-55.149,0l0,309.649c13.109,4.219 26.859,7.572 41.249,10.058c14.39,2.486 29.948,3.729 46.673,3.729c17.027,0 32.773,-2.449 47.238,-7.346c14.465,-4.897 27.01,-12.431 37.633,-22.602c10.623,-10.171 18.91,-22.941 24.862,-38.311c5.952,-15.369 8.928,-33.602 8.928,-54.697Zm-57.861,2.26c0,11.904 -1.356,22.64 -4.068,32.208c-2.712,9.568 -6.592,17.667 -11.64,24.297c-5.048,6.63 -11.15,11.753 -18.308,15.369c-7.157,3.616 -15.106,5.425 -23.845,5.425c-6.63,0 -13.147,-0.527 -19.551,-1.582c-6.404,-1.055 -11.791,-2.411 -16.161,-4.068l0,-100.353c9.493,-12.959 18.496,-23.205 27.01,-30.739c8.513,-7.534 17.441,-11.301 26.784,-11.301c6.329,0 11.941,1.318 16.839,3.955c4.897,2.637 9.041,6.818 12.431,12.544c3.39,5.726 5.99,13.034 7.798,21.924c1.808,8.89 2.712,19.664 2.712,32.321Zm-8.037,0c0,-12.009 -0.83,-22.233 -2.546,-30.668c-1.595,-7.843 -3.823,-14.315 -6.814,-19.367c-2.558,-4.32 -5.613,-7.549 -9.308,-9.538c-3.799,-2.045 -8.167,-3.005 -13.076,-3.005c-7.528,0 -14.645,3.222 -21.505,9.293c-7.676,6.793 -15.746,15.906 -24.251,27.306l0,91.648c2.808,0.758 5.946,1.417 9.41,1.988c5.983,0.985 12.071,1.477 18.265,1.477c7.425,0 14.186,-1.498 20.267,-4.57c6.074,-3.069 11.245,-7.427 15.529,-13.054c4.475,-5.877 7.87,-13.079 10.274,-21.561c2.522,-8.896 3.754,-18.881 3.754,-29.948Zm292.742,49.047c0,14.833 -3.394,27.462 -9.958,37.947c-6.474,10.341 -15.04,18.758 -25.717,25.232c-10.287,6.237 -21.943,10.795 -34.984,13.63c-12.678,2.756 -25.632,4.136 -38.862,4.136c-17.215,0 -32.739,-0.813 -46.573,-2.427c-13.916,-1.623 -27.058,-3.984 -39.427,-7.077l-6.117,-1.529l-0,-68.281l11.075,4.595c13.636,5.657 27.234,9.761 40.797,12.299c13.575,2.541 26.387,3.82 38.437,3.82c12.521,0 21.946,-1.653 28.141,-5.631c4.477,-2.875 6.992,-6.446 6.992,-11.065c0,-2.057 -0.416,-3.942 -1.31,-5.642c-0.977,-1.857 -2.967,-3.469 -5.655,-5.18c-3.781,-2.406 -9.126,-4.841 -16.001,-7.384c-7.382,-2.731 -17.053,-5.789 -29.01,-9.185c-11.765,-3.295 -22.075,-7.033 -30.939,-11.19c-9.405,-4.411 -17.164,-9.65 -23.323,-15.643c-6.429,-6.255 -11.244,-13.513 -14.459,-21.766c-3.121,-8.014 -4.745,-17.409 -4.745,-28.206c0,-10.668 2.409,-20.733 7.227,-30.197c4.759,-9.348 11.815,-17.583 21.248,-24.636c9.054,-6.77 20.327,-12.166 33.868,-16.082c13.135,-3.798 28.481,-5.736 46.048,-5.736c14.864,0 28.025,0.783 39.483,2.331c11.366,1.536 21.425,3.228 30.18,5.071l6.406,1.349l0,62.779l-10.463,-3.368c-12.666,-4.077 -24.566,-6.96 -35.704,-8.635c-11.131,-1.673 -22.153,-2.511 -33.066,-2.511c-9.602,0 -17.357,1.531 -23.183,4.988c-4.059,2.409 -6.3,5.618 -6.3,9.9c0,2.078 0.35,3.942 1.162,5.568c0.84,1.68 2.676,3.118 5.149,4.704c3.652,2.343 8.766,4.754 15.312,7.304c6.973,2.716 16.188,5.681 27.646,8.912l0.007,0.002c13.754,3.907 25.313,8.105 34.691,12.559c9.964,4.733 17.944,10.138 24.005,16.116c6.427,6.339 11.029,13.572 13.846,21.672c2.688,7.728 4.076,16.541 4.076,26.454Zm-8.037,0c0,-8.89 -1.205,-16.801 -3.616,-23.732c-2.411,-6.931 -6.366,-13.109 -11.866,-18.534c-5.5,-5.425 -12.77,-10.284 -21.811,-14.578c-9.041,-4.294 -20.191,-8.325 -33.451,-12.092c-11.753,-3.315 -21.208,-6.366 -28.366,-9.154c-7.157,-2.788 -12.733,-5.462 -16.726,-8.024c-3.993,-2.562 -6.668,-5.198 -8.024,-7.911c-1.356,-2.712 -2.034,-5.801 -2.034,-9.267c0,-7.233 3.428,-12.883 10.284,-16.952c6.856,-4.068 15.935,-6.103 27.236,-6.103c11.301,0 22.715,0.866 34.242,2.599c11.527,1.733 23.845,4.709 36.954,8.928l0,-44.978c-8.589,-1.808 -18.458,-3.466 -29.609,-4.972c-11.15,-1.507 -23.958,-2.26 -38.424,-2.26c-16.726,0 -31.342,1.808 -43.848,5.425c-12.507,3.616 -22.941,8.551 -31.304,14.804c-8.363,6.253 -14.654,13.524 -18.873,21.811c-4.219,8.287 -6.329,17.102 -6.329,26.444c0,9.644 1.394,18.044 4.181,25.201c2.788,7.157 6.969,13.448 12.544,18.873c5.575,5.425 12.62,10.133 21.133,14.126c8.513,3.993 18.421,7.572 29.722,10.736c12.205,3.466 22.075,6.592 29.609,9.38c7.534,2.788 13.373,5.5 17.517,8.137c4.144,2.637 6.969,5.387 8.476,8.25c1.507,2.863 2.26,6.027 2.26,9.493c0,7.383 -3.579,13.373 -10.736,17.969c-7.157,4.596 -17.969,6.894 -32.434,6.894c-12.507,0 -25.804,-1.318 -39.893,-3.955c-14.089,-2.637 -28.215,-6.894 -42.379,-12.77l0,49.725c12.054,3.014 24.862,5.312 38.424,6.894c13.561,1.582 28.78,2.373 45.656,2.373c12.657,0 25.051,-1.318 37.181,-3.955c12.13,-2.637 22.979,-6.856 32.547,-12.657c9.568,-5.801 17.253,-13.335 23.054,-22.602c5.801,-9.267 8.702,-20.455 8.702,-33.564Z" style="fill:white;"/>
            </g>
        </g>
    </g>
    <defs>
        <linearGradient id="_Linear1" x1="0" y1="0" x2="1" y2="0" gradientUnits="userSpaceOnUse" gradientTransform="matrix(371.876235,251.011557,-251.011557,371.876235,1099.391059,438.680703)"><stop offset="0" style="stop-color:rgb(10,63,139);stop-opacity:1"/><stop offset="1" style="stop-color:rgb(0,166,174);stop-opacity:1"/></linearGradient>
        <linearGradient id="_Linear2" x1="0" y1="0" x2="1" y2="0" gradientUnits="userSpaceOnUse" gradientTransform="matrix(315.175723,-243.300316,243.300316,315.175723,1089.859836,434.0838)"><stop offset="0" style="stop-color:rgb(10,63,139);stop-opacity:1"/><stop offset="1" style="stop-color:rgb(0,163,173);stop-opacity:1"/></linearGradient>
    </defs>
</svg>
